<svg width="182" height="25" viewBox="0 0 182 25" fill="none" xmlns="http://www.w3.org/2000/svg">
<path d="M8.25 20.396C6.12333 20.396 4.48067 19.8973 3.322 18.9C2.178 17.888 1.61333 16.3773 1.628 14.368H5.214C5.19933 15.204 5.44867 15.842 5.962 16.282C6.47533 16.722 7.194 16.942 8.118 16.942C8.88067 16.942 9.482 16.8173 9.922 16.568C10.362 16.3187 10.582 15.9373 10.582 15.424C10.582 14.9987 10.3547 14.6907 9.9 14.5C9.46 14.3093 9.02 14.1773 8.58 14.104C8.14 14.016 7.86867 13.9647 7.766 13.95C6.63667 13.73 5.66133 13.466 4.84 13.158C4.01867 12.8353 3.32933 12.3513 2.772 11.706C2.21467 11.0607 1.936 10.21 1.936 9.154C1.936 8.098 2.21467 7.20333 2.772 6.47C3.32933 5.722 4.07 5.16467 4.994 4.798C5.93267 4.43133 6.952 4.248 8.052 4.248C9.38667 4.248 10.538 4.49733 11.506 4.996C12.4887 5.49467 13.2587 6.25 13.816 7.262C14.0947 7.746 14.2633 8.21533 14.322 8.67C14.3807 9.11 14.41 9.54267 14.41 9.968H10.824C10.824 9.176 10.6113 8.59667 10.186 8.23C9.76067 7.84867 9.10067 7.658 8.206 7.658C7.48733 7.658 6.93 7.78267 6.534 8.032C6.138 8.28133 5.94 8.61867 5.94 9.044C5.94 9.51333 6.204 9.858 6.732 10.078C7.26 10.298 7.92733 10.496 8.734 10.672C10.054 10.936 11.0807 11.1927 11.814 11.442C12.562 11.6767 13.2073 12.102 13.75 12.718C14.2927 13.334 14.564 14.1993 14.564 15.314C14.564 16.37 14.2707 17.2793 13.684 18.042C13.0973 18.8047 12.32 19.3913 11.352 19.802C10.3987 20.198 9.36467 20.396 8.25 20.396Z" fill="#555555"/>
<path d="M20.7292 20V4.688H21.5432V11.926H31.7072V4.688H32.5212V20H31.7072V12.74H21.5432V20H20.7292ZM44.6923 4.688H45.5503L51.8423 20H50.9623L48.8943 14.94H41.3483L39.2583 20H38.4003L44.6923 4.688ZM41.6783 14.148H48.5643L45.1103 5.744L41.6783 14.148ZM66.6755 5.128C67.3648 5.48 67.8928 5.964 68.2595 6.58C68.6408 7.196 68.8315 7.88533 68.8315 8.648C68.8315 9.36667 68.6408 10.034 68.2595 10.65C67.8928 11.2513 67.3795 11.728 66.7195 12.08C67.4968 12.344 68.1421 12.828 68.6555 13.532C69.1688 14.236 69.4255 15.0133 69.4255 15.864C69.4255 16.6267 69.2348 17.3307 68.8535 17.976C68.4721 18.6213 67.9661 19.12 67.3355 19.472C67.0128 19.648 66.6535 19.78 66.2575 19.868C65.8615 19.956 65.3335 20 64.6735 20H58.2495V4.688H64.3655C65.3335 4.688 66.1035 4.83467 66.6755 5.128ZM66.3235 11.442C66.8515 11.178 67.2695 10.7967 67.5775 10.298C67.8855 9.79933 68.0395 9.24933 68.0395 8.648C68.0395 7.97333 67.8635 7.38667 67.5115 6.888C67.1595 6.37467 66.7121 6.00067 66.1695 5.766C65.7588 5.59 65.0695 5.502 64.1015 5.502H59.0415V11.794H64.4975C65.2601 11.794 65.8688 11.6767 66.3235 11.442ZM66.8515 18.856C67.3941 18.5773 67.8268 18.174 68.1495 17.646C68.4721 17.1033 68.6335 16.5167 68.6335 15.886C68.6335 15.226 68.4648 14.632 68.1275 14.104C67.7901 13.5613 67.3355 13.158 66.7635 12.894C66.3235 12.6887 65.7295 12.586 64.9815 12.586H59.0415V19.208H64.6955C65.2528 19.208 65.6928 19.1787 66.0155 19.12C66.3381 19.0613 66.6168 18.9733 66.8515 18.856ZM85.1606 5.128C85.85 5.48 86.378 5.964 86.7446 6.58C87.126 7.196 87.3166 7.88533 87.3166 8.648C87.3166 9.36667 87.126 10.034 86.7446 10.65C86.378 11.2513 85.8646 11.728 85.2046 12.08C85.982 12.344 86.6273 12.828 87.1406 13.532C87.654 14.236 87.9106 15.0133 87.9106 15.864C87.9106 16.6267 87.72 17.3307 87.3386 17.976C86.9573 18.6213 86.4513 19.12 85.8206 19.472C85.498 19.648 85.1386 19.78 84.7426 19.868C84.3466 19.956 83.8186 20 83.1586 20H76.7346V4.688H82.8506C83.8186 4.688 84.5886 4.83467 85.1606 5.128ZM84.8086 11.442C85.3366 11.178 85.7546 10.7967 86.0626 10.298C86.3706 9.79933 86.5246 9.24933 86.5246 8.648C86.5246 7.97333 86.3486 7.38667 85.9966 6.888C85.6446 6.37467 85.1973 6.00067 84.6546 5.766C84.244 5.59 83.5546 5.502 82.5866 5.502H77.5266V11.794H82.9826C83.7453 11.794 84.354 11.6767 84.8086 11.442ZM85.3366 18.856C85.8793 18.5773 86.312 18.174 86.6346 17.646C86.9573 17.1033 87.1186 16.5167 87.1186 15.886C87.1186 15.226 86.95 14.632 86.6126 14.104C86.2753 13.5613 85.8206 13.158 85.2486 12.894C84.8086 12.6887 84.2146 12.586 83.4666 12.586H77.5266V19.208H83.1806C83.738 19.208 84.178 19.1787 84.5006 19.12C84.8233 19.0613 85.102 18.9733 85.3366 18.856ZM105.538 4.688V5.502H100.962V19.186H105.538V20H95.6158V19.186H100.17V5.502H95.6158V4.688H105.538ZM122.373 5.194C123.253 5.60467 123.942 6.21333 124.441 7.02C124.954 7.82667 125.211 8.72133 125.211 9.704C125.211 10.848 124.859 11.8747 124.155 12.784C123.466 13.6787 122.578 14.2727 121.493 14.566L125.387 20H124.419L120.657 14.72L119.953 14.742H114.431V20H113.617V4.688H119.447C120.092 4.688 120.642 4.732 121.097 4.82C121.566 4.89333 121.992 5.018 122.373 5.194ZM120.173 13.928C120.936 13.928 121.64 13.7373 122.285 13.356C122.93 12.9747 123.444 12.4613 123.825 11.816C124.206 11.1707 124.397 10.4667 124.397 9.704C124.397 8.85333 124.17 8.08333 123.715 7.394C123.275 6.70467 122.659 6.19133 121.867 5.854C121.295 5.61933 120.488 5.502 119.447 5.502H114.431V13.928H120.173Z" fill="#333333"/>
<path d="M140.319 12.876V20H139.136V18.947C138.911 19.311 138.594 19.597 138.187 19.805C137.788 20.0043 137.346 20.104 136.861 20.104C136.306 20.104 135.808 19.9913 135.366 19.766C134.924 19.532 134.573 19.1853 134.313 18.726C134.062 18.2667 133.936 17.7077 133.936 17.049V12.876H135.106V16.893C135.106 17.595 135.284 18.1367 135.639 18.518C135.994 18.8907 136.48 19.077 137.095 19.077C137.728 19.077 138.226 18.882 138.59 18.492C138.954 18.102 139.136 17.5343 139.136 16.789V12.876H140.319ZM152.183 12.746C152.738 12.746 153.232 12.863 153.665 13.097C154.099 13.3223 154.441 13.6647 154.692 14.124C154.944 14.5833 155.069 15.1423 155.069 15.801V20H153.899V15.97C153.899 15.2593 153.722 14.7177 153.366 14.345C153.02 13.9637 152.547 13.773 151.949 13.773C151.334 13.773 150.844 13.9723 150.48 14.371C150.116 14.761 149.934 15.3287 149.934 16.074V20H148.764V15.97C148.764 15.2593 148.587 14.7177 148.231 14.345C147.885 13.9637 147.412 13.773 146.814 13.773C146.199 13.773 145.709 13.9723 145.345 14.371C144.981 14.761 144.799 15.3287 144.799 16.074V20H143.616V12.876H144.799V13.903C145.033 13.5303 145.345 13.2443 145.735 13.045C146.134 12.8457 146.572 12.746 147.048 12.746C147.646 12.746 148.175 12.8803 148.634 13.149C149.094 13.4177 149.436 13.812 149.661 14.332C149.861 13.8293 150.19 13.4393 150.649 13.162C151.109 12.8847 151.62 12.746 152.183 12.746ZM159.493 14.033C159.701 13.6257 159.996 13.3093 160.377 13.084C160.767 12.8587 161.239 12.746 161.794 12.746V13.968H161.482C160.156 13.968 159.493 14.6873 159.493 16.126V20H158.31V12.876H159.493V14.033ZM164.018 16.412C164.018 15.684 164.165 15.047 164.46 14.501C164.754 13.9463 165.157 13.5173 165.669 13.214C166.189 12.9107 166.765 12.759 167.398 12.759C168.022 12.759 168.563 12.8933 169.023 13.162C169.482 13.4307 169.824 13.7687 170.05 14.176V12.876H171.246V20H170.05V18.674C169.816 19.09 169.465 19.4367 168.997 19.714C168.537 19.9827 168 20.117 167.385 20.117C166.752 20.117 166.18 19.961 165.669 19.649C165.157 19.337 164.754 18.8993 164.46 18.336C164.165 17.7727 164.018 17.1313 164.018 16.412ZM170.05 16.425C170.05 15.8877 169.941 15.4197 169.725 15.021C169.508 14.6223 169.213 14.319 168.841 14.111C168.477 13.8943 168.074 13.786 167.632 13.786C167.19 13.786 166.787 13.89 166.423 14.098C166.059 14.306 165.768 14.6093 165.552 15.008C165.335 15.4067 165.227 15.8747 165.227 16.412C165.227 16.958 165.335 17.4347 165.552 17.842C165.768 18.2407 166.059 18.5483 166.423 18.765C166.787 18.973 167.19 19.077 167.632 19.077C168.074 19.077 168.477 18.973 168.841 18.765C169.213 18.5483 169.508 18.2407 169.725 17.842C169.941 17.4347 170.05 16.9623 170.05 16.425ZM175.728 10.38V20H174.545V10.38H175.728ZM179.655 11.719C179.43 11.719 179.239 11.641 179.083 11.485C178.927 11.329 178.849 11.1383 178.849 10.913C178.849 10.6877 178.927 10.497 179.083 10.341C179.239 10.185 179.43 10.107 179.655 10.107C179.872 10.107 180.054 10.185 180.201 10.341C180.357 10.497 180.435 10.6877 180.435 10.913C180.435 11.1383 180.357 11.329 180.201 11.485C180.054 11.641 179.872 11.719 179.655 11.719ZM180.227 12.876V20H179.044V12.876H180.227Z" fill="#555555"/>
</svg>
