<svg width="17" height="22" viewBox="0 0 17 22" fill="none" xmlns="http://www.w3.org/2000/svg">
<path d="M8.25 20.396C6.12333 20.396 4.48067 19.8973 3.322 18.9C2.178 17.888 1.61333 16.3773 1.628 14.368H5.214C5.19933 15.204 5.44867 15.842 5.962 16.282C6.47533 16.722 7.194 16.942 8.118 16.942C8.88067 16.942 9.482 16.8173 9.922 16.568C10.362 16.3187 10.582 15.9373 10.582 15.424C10.582 14.9987 10.3547 14.6907 9.9 14.5C9.46 14.3093 9.02 14.1773 8.58 14.104C8.14 14.016 7.86867 13.9647 7.766 13.95C6.63667 13.73 5.66133 13.466 4.84 13.158C4.01867 12.8353 3.32933 12.3513 2.772 11.706C2.21467 11.0607 1.936 10.21 1.936 9.154C1.936 8.098 2.21467 7.20333 2.772 6.47C3.32933 5.722 4.07 5.16467 4.994 4.798C5.93267 4.43133 6.952 4.248 8.052 4.248C9.38667 4.248 10.538 4.49733 11.506 4.996C12.4887 5.49467 13.2587 6.25 13.816 7.262C14.0947 7.746 14.2633 8.21533 14.322 8.67C14.3807 9.11 14.41 9.54267 14.41 9.968H10.824C10.824 9.176 10.6113 8.59667 10.186 8.23C9.76067 7.84867 9.10067 7.658 8.206 7.658C7.48733 7.658 6.93 7.78267 6.534 8.032C6.138 8.28133 5.94 8.61867 5.94 9.044C5.94 9.51333 6.204 9.858 6.732 10.078C7.26 10.298 7.92733 10.496 8.734 10.672C10.054 10.936 11.0807 11.1927 11.814 11.442C12.562 11.6767 13.2073 12.102 13.75 12.718C14.2927 13.334 14.564 14.1993 14.564 15.314C14.564 16.37 14.2707 17.2793 13.684 18.042C13.0973 18.8047 12.32 19.3913 11.352 19.802C10.3987 20.198 9.36467 20.396 8.25 20.396Z" fill="#FF9292"/>
</svg>
