<svg id="icons" xmlns="http://www.w3.org/2000/svg" viewBox="0 0 48 48"><title>drawing-tablet</title><g id="drawing-tablet"><path d="M44.79,3.21a4.12,4.12,0,0,1,0,5.83l-.73.73L38.23,3.94,39,3.21A4.12,4.12,0,0,1,44.79,3.21Z" fill="#fff"/><polygon points="38.23 3.94 28.09 14.09 24.09 18.09 22.92 19.25 21.46 26.54 28.75 25.08 35.92 17.92 39.92 13.92 44.06 9.77 38.23 3.94" fill="#fc3768"/><polygon points="24 18 24.09 18.09 22.92 19.25 21.46 26.54 28.75 25.08 35.92 17.92 36 18 42 18 42 42 14 42 14 18 24 18" fill="#6d7c8c"/><path d="M46,16V44a2,2,0,0,1-2,2H4a2,2,0,0,1-2-2V16a2,2,0,0,1,2-2H28l.09.09-4,4L24,18H14V42H42V18H36l-.08-.08,4-4L40,14h4A2,2,0,0,1,46,16Z" fill="#fff"/><path d="M44,47H4a3,3,0,0,1-3-3V16a3,3,0,0,1,3-3H28a1,1,0,0,1,0,2H4a1,1,0,0,0-1,1V44a1,1,0,0,0,1,1H44a1,1,0,0,0,1-1V16a1,1,0,0,0-1-1H40a1,1,0,0,1,0-2h4a3,3,0,0,1,3,3V44A3,3,0,0,1,44,47Z" fill="#252b33"/><path d="M42,43H14a1,1,0,0,1-1-1V18a1,1,0,0,1,1-1H24a1,1,0,0,1,0,2H15V41H41V19H36a1,1,0,0,1,0-2h6a1,1,0,0,1,1,1V42A1,1,0,0,1,42,43Z" fill="#252b33"/><path d="M8,22a2,2,0,1,1,2-2A2,2,0,0,1,8,22Zm0-2Z" fill="#252b33"/><path d="M8,28a2,2,0,1,1,2-2A2,2,0,0,1,8,28Zm0-2Z" fill="#252b33"/><path d="M21.46,27.54a1,1,0,0,1-.71-.29,1,1,0,0,1-.27-.9l1.46-7.3a1,1,0,0,1,.27-.51l16-16A5.13,5.13,0,0,1,45.5,9.75l-16,16a1,1,0,0,1-.51.27l-7.3,1.46A.62.62,0,0,1,21.46,27.54Zm2.38-7.8-1.11,5.53,5.53-1.11L44.08,8.33a3.12,3.12,0,0,0-4.41-4.41Z" fill="#252b33"/><path d="M20,29a1,1,0,0,1-.71-.29,1,1,0,0,1,0-1.42l1.46-1.46a1,1,0,0,1,1.42,1.42l-1.46,1.46A1,1,0,0,1,20,29Z" fill="#252b33"/><path d="M44.06,10.77a1,1,0,0,1-.7-.29L37.52,4.64a1,1,0,0,1,0-1.41,1,1,0,0,1,1.42,0l5.83,5.83a1,1,0,0,1,0,1.42A1,1,0,0,1,44.06,10.77Z" fill="#252b33"/><path d="M36,35a1,1,0,0,1-.77-.36l-2.69-3.23a2.06,2.06,0,0,0-3.08,0l-.59.71A4,4,0,0,1,26,33.55a4,4,0,0,1-3-1.17l-3.68-3.67a1,1,0,0,1,1.42-1.42L24.38,31a2,2,0,0,0,1.51.58,2,2,0,0,0,1.45-.71l.59-.71a4,4,0,0,1,6.14,0l2.7,3.23a1,1,0,0,1-.13,1.41A1,1,0,0,1,36,35Z" fill="#252b33"/></g></svg>